<?xml version="1.0" encoding="UTF-8" standalone="no"?>
<!DOCTYPE svg PUBLIC "-//W3C//DTD SVG 1.0//EN"
 "http://www.w3.org/TR/2001/REC-SVG-20010904/DTD/svg10.dtd" [
 <!ATTLIST svg xmlns:xlink CDATA #FIXED "http://www.w3.org/1999/xlink">
]>
<!-- Generated by Graphviz version 2.12 (Sat Sep 22 01:28:26 UTC 2007)
     For user: (STUDENT\s0113433) Kohl Van Wijngaarden E.T.V. (student) -->
<!-- Title: _anonymous_0 Pages: 1 -->
<svg width="28.84in" height="4.66in"
 xmlns="http://www.w3.org/2000/svg" xmlns:xlink="http://www.w3.org/1999/xlink">
<g id="graph0" class="graph" transform="scale(1.33333 1.33333) rotate(0) translate(4 332)">
<title>_anonymous_0</title>
<polygon style="fill:lightgrey;stroke:lightgrey;" points="-4,4 -4,-332 2073,-332 2073,4 -4,4"/>
<!-- n0 -->
<g id="node1" class="node"><title>n0</title>
<polygon style="fill:white;stroke:black;stroke-width:2;" points="556,-328 510,-328 510,-306 556,-306 556,-328"/>
<text text-anchor="middle" x="533" y="-312" style="font-family:Nimbus Sans L;font-weight:bold;font-size:9.72pt;fill:blue;">demo</text>
</g>
<!-- n1 -->
<g id="node2" class="node"><title>n1</title>
<polygon style="fill:white;stroke:black;stroke-width:2;" points="130,-277 52,-277 52,-255 130,-255 130,-277"/>
<text text-anchor="middle" x="91" y="-261" style="font-family:Nimbus Sans L;font-weight:bold;font-size:9.72pt;fill:blue;">parameters</text>
</g>
<!-- n0&#45;&gt;n1 -->
<g id="edge2" class="edge"><title>n0&#45;&gt;n1</title>
<path style="fill:none;stroke:black;stroke-width:2;" d="M510,-314C439,-306 228,-282 135,-272"/>
<polygon style="fill:black;stroke:black;" points="135.246,-270.265 130,-271 134.56,-273.697 135.246,-270.265"/>
</g>
<!-- n6 -->
<g id="node7" class="node"><title>n6</title>
<polygon style="fill:white;stroke:black;stroke-width:2;" points="372,-277 310,-277 310,-255 372,-255 372,-277"/>
<text text-anchor="middle" x="341" y="-261" style="font-family:Nimbus Sans L;font-weight:bold;font-size:9.72pt;fill:blue;">registers</text>
</g>
<!-- n0&#45;&gt;n6 -->
<g id="edge12" class="edge"><title>n0&#45;&gt;n6</title>
<path style="fill:none;stroke:black;stroke-width:2;" d="M510,-311C477,-302 417,-286 377,-275"/>
<polygon style="fill:black;stroke:black;" points="377.246,-273.265 372,-274 376.56,-276.697 377.246,-273.265"/>
</g>
<!-- n17 -->
<g id="node18" class="node"><title>n17</title>
<polygon style="fill:white;stroke:black;stroke-width:2;" points="748,-277 702,-277 702,-255 748,-255 748,-277"/>
<text text-anchor="middle" x="725" y="-261" style="font-family:Nimbus Sans L;font-weight:bold;font-size:9.72pt;fill:blue;">maps</text>
</g>
<!-- n0&#45;&gt;n17 -->
<g id="edge34" class="edge"><title>n0&#45;&gt;n17</title>
<path style="fill:none;stroke:black;stroke-width:2;" d="M556,-311C591,-301 659,-284 697,-273"/>
<polygon style="fill:black;stroke:black;" points="697.44,-274.697 702,-272 696.754,-271.265 697.44,-274.697"/>
</g>
<!-- n36 -->
<g id="node37" class="node"><title>n36</title>
<polygon style="fill:white;stroke:black;stroke-width:2;" points="1478,-277 1400,-277 1400,-255 1478,-255 1478,-277"/>
<text text-anchor="middle" x="1439" y="-261" style="font-family:Nimbus Sans L;font-weight:bold;font-size:9.72pt;fill:blue;">instructions</text>
</g>
<!-- n0&#45;&gt;n36 -->
<g id="edge72" class="edge"><title>n0&#45;&gt;n36</title>
<path style="fill:none;stroke:black;stroke-width:2;" d="M556,-316C677,-309 1233,-278 1395,-268"/>
<polygon style="fill:black;stroke:black;" points="1395,-269.75 1400,-268 1395,-266.25 1395,-269.75"/>
</g>
<!-- n2 -->
<g id="node3" class="node"><title>n2</title>
<polygon style="fill:white;stroke:black;stroke-width:2;" points="28,-226 9.67976e-15,-226 1.10415e-15,-204 28,-204 28,-226"/>
<text text-anchor="middle" x="14" y="-210" style="font-family:Nimbus Sans L;font-weight:bold;font-size:9.72pt;fill:blue;">16</text>
</g>
<!-- n1&#45;&gt;n2 -->
<g id="edge4" class="edge"><title>n1&#45;&gt;n2</title>
<path style="fill:none;stroke:black;stroke-width:2;" d="M74,-255C62,-247 45,-236 32,-227"/>
<polygon style="fill:black;stroke:black;" points="33.05,-225.6 28,-224 30.95,-228.4 33.05,-225.6"/>
</g>
<!-- n3 -->
<g id="node4" class="node"><title>n3</title>
<polygon style="fill:white;stroke:black;stroke-width:2;" points="68,-226 46,-226 46,-204 68,-204 68,-226"/>
<text text-anchor="middle" x="57" y="-210" style="font-family:Nimbus Sans L;font-weight:bold;font-size:9.72pt;fill:blue;">1</text>
</g>
<!-- n1&#45;&gt;n3 -->
<g id="edge6" class="edge"><title>n1&#45;&gt;n3</title>
<path style="fill:none;stroke:black;stroke-width:2;" d="M84,-255C79,-247 72,-238 68,-230"/>
<polygon style="fill:black;stroke:black;" points="69.4,-228.95 65,-226 66.6,-231.05 69.4,-228.95"/>
</g>
<!-- n4 -->
<g id="node5" class="node"><title>n4</title>
<polygon style="fill:white;stroke:black;stroke-width:2;" points="164,-226 86,-226 86,-204 164,-204 164,-226"/>
<text text-anchor="middle" x="125" y="-210" style="font-family:Nimbus Sans L;font-weight:bold;font-size:9.72pt;fill:blue;">endianness</text>
</g>
<!-- n1&#45;&gt;n4 -->
<g id="edge8" class="edge"><title>n1&#45;&gt;n4</title>
<path style="fill:none;stroke:black;stroke-width:2;" d="M98,-255C103,-247 110,-238 114,-230"/>
<polygon style="fill:black;stroke:black;" points="115.4,-231.05 117,-226 112.6,-228.95 115.4,-231.05"/>
</g>
<!-- n5 -->
<g id="node6" class="node"><title>n5</title>
<polygon style="fill:white;stroke:black;stroke-width:2;" points="144,-175 106,-175 106,-153 144,-153 144,-175"/>
<text text-anchor="middle" x="125" y="-159" style="font-family:Nimbus Sans L;font-weight:bold;font-size:9.72pt;fill:blue;">little</text>
</g>
<!-- n4&#45;&gt;n5 -->
<g id="edge10" class="edge"><title>n4&#45;&gt;n5</title>
<path style="fill:none;stroke:black;stroke-width:2;" d="M125,-204C125,-197 125,-188 125,-180"/>
<polygon style="fill:black;stroke:black;" points="126.75,-180 125,-175 123.25,-180 126.75,-180"/>
</g>
<!-- n7 -->
<g id="node8" class="node"><title>n7</title>
<polygon style="fill:white;stroke:black;stroke-width:2;" points="232,-226 182,-226 182,-204 232,-204 232,-226"/>
<text text-anchor="middle" x="207" y="-210" style="font-family:Nimbus Sans L;font-weight:bold;font-size:9.72pt;fill:blue;">SREG</text>
</g>
<!-- n6&#45;&gt;n7 -->
<g id="edge14" class="edge"><title>n6&#45;&gt;n7</title>
<path style="fill:none;stroke:black;stroke-width:2;" d="M312,-255C290,-247 260,-235 237,-227"/>
<polygon style="fill:black;stroke:black;" points="237.292,-225.232 232,-225 235.992,-228.482 237.292,-225.232"/>
</g>
<!-- n9 -->
<g id="node10" class="node"><title>n9</title>
<polygon style="fill:white;stroke:black;stroke-width:2;" points="282,-226 250,-226 250,-204 282,-204 282,-226"/>
<text text-anchor="middle" x="266" y="-210" style="font-family:Nimbus Sans L;font-weight:bold;font-size:9.72pt;fill:blue;">PC</text>
</g>
<!-- n6&#45;&gt;n9 -->
<g id="edge18" class="edge"><title>n6&#45;&gt;n9</title>
<path style="fill:none;stroke:black;stroke-width:2;" d="M325,-255C313,-247 299,-237 286,-229"/>
<polygon style="fill:black;stroke:black;" points="287.05,-227.6 282,-226 284.95,-230.4 287.05,-227.6"/>
</g>
<!-- n11 -->
<g id="node12" class="node"><title>n11</title>
<polygon style="fill:white;stroke:black;stroke-width:2;" points="332,-226 300,-226 300,-204 332,-204 332,-226"/>
<text text-anchor="middle" x="316" y="-210" style="font-family:Nimbus Sans L;font-weight:bold;font-size:9.72pt;fill:blue;">SP</text>
</g>
<!-- n6&#45;&gt;n11 -->
<g id="edge22" class="edge"><title>n6&#45;&gt;n11</title>
<path style="fill:none;stroke:black;stroke-width:2;" d="M336,-255C332,-248 328,-239 324,-231"/>
<polygon style="fill:black;stroke:black;" points="325.073,-229.387 321,-226 322.072,-231.188 325.073,-229.387"/>
</g>
<!-- n13 -->
<g id="node14" class="node"><title>n13</title>
<polygon style="fill:white;stroke:black;stroke-width:2;" points="382,-226 350,-226 350,-204 382,-204 382,-226"/>
<text text-anchor="middle" x="366" y="-210" style="font-family:Nimbus Sans L;font-weight:bold;font-size:9.72pt;fill:blue;">R0</text>
</g>
<!-- n6&#45;&gt;n13 -->
<g id="edge26" class="edge"><title>n6&#45;&gt;n13</title>
<path style="fill:none;stroke:black;stroke-width:2;" d="M346,-255C350,-248 354,-239 358,-231"/>
<polygon style="fill:black;stroke:black;" points="359.928,-231.188 361,-226 356.927,-229.387 359.928,-231.188"/>
</g>
<!-- n15 -->
<g id="node16" class="node"><title>n15</title>
<polygon style="fill:white;stroke:black;stroke-width:2;" points="432,-226 400,-226 400,-204 432,-204 432,-226"/>
<text text-anchor="middle" x="416" y="-210" style="font-family:Nimbus Sans L;font-weight:bold;font-size:9.72pt;fill:blue;">R1</text>
</g>
<!-- n6&#45;&gt;n15 -->
<g id="edge30" class="edge"><title>n6&#45;&gt;n15</title>
<path style="fill:none;stroke:black;stroke-width:2;" d="M357,-255C369,-247 383,-237 396,-229"/>
<polygon style="fill:black;stroke:black;" points="397.05,-230.4 400,-226 394.95,-227.6 397.05,-230.4"/>
</g>
<!-- n8 -->
<g id="node9" class="node"><title>n8</title>
<polygon style="fill:white;stroke:black;stroke-width:2;" points="208,-175 164,-175 164,-153 208,-153 208,-175"/>
<text text-anchor="middle" x="186" y="-159" style="font-family:Nimbus Sans L;font-weight:bold;font-size:9.72pt;fill:blue;">0x5F</text>
</g>
<!-- n7&#45;&gt;n8 -->
<g id="edge16" class="edge"><title>n7&#45;&gt;n8</title>
<path style="fill:none;stroke:black;stroke-width:2;" d="M202,-204C200,-197 196,-188 192,-180"/>
<polygon style="fill:black;stroke:black;" points="193.482,-178.992 190,-175 190.232,-180.292 193.482,-178.992"/>
</g>
<!-- n10 -->
<g id="node11" class="node"><title>n10</title>
<polygon style="fill:white;stroke:black;stroke-width:2;" points="276,-175 226,-175 226,-153 276,-153 276,-175"/>
<text text-anchor="middle" x="251" y="-159" style="font-family:Nimbus Sans L;font-weight:bold;font-size:9.72pt;fill:blue;">0x462</text>
</g>
<!-- n9&#45;&gt;n10 -->
<g id="edge20" class="edge"><title>n9&#45;&gt;n10</title>
<path style="fill:none;stroke:black;stroke-width:2;" d="M263,-204C261,-197 258,-188 256,-180"/>
<polygon style="fill:black;stroke:black;" points="257.482,-178.992 254,-175 254.232,-180.292 257.482,-178.992"/>
</g>
<!-- n12 -->
<g id="node13" class="node"><title>n12</title>
<polygon style="fill:white;stroke:black;stroke-width:2;" points="338,-175 294,-175 294,-153 338,-153 338,-175"/>
<text text-anchor="middle" x="316" y="-159" style="font-family:Nimbus Sans L;font-weight:bold;font-size:9.72pt;fill:blue;">0x5D</text>
</g>
<!-- n11&#45;&gt;n12 -->
<g id="edge24" class="edge"><title>n11&#45;&gt;n12</title>
<path style="fill:none;stroke:black;stroke-width:2;" d="M316,-204C316,-197 316,-188 316,-180"/>
<polygon style="fill:black;stroke:black;" points="317.75,-180 316,-175 314.25,-180 317.75,-180"/>
</g>
<!-- n14 -->
<g id="node15" class="node"><title>n14</title>
<polygon style="fill:white;stroke:black;stroke-width:2;" points="378,-175 356,-175 356,-153 378,-153 378,-175"/>
<text text-anchor="middle" x="367" y="-159" style="font-family:Nimbus Sans L;font-weight:bold;font-size:9.72pt;fill:blue;">5</text>
</g>
<!-- n13&#45;&gt;n14 -->
<g id="edge28" class="edge"><title>n13&#45;&gt;n14</title>
<path style="fill:none;stroke:black;stroke-width:2;" d="M366,-204C367,-197 367,-188 367,-180"/>
<polygon style="fill:black;stroke:black;" points="368.75,-180 367,-175 365.25,-180 368.75,-180"/>
</g>
<!-- n16 -->
<g id="node17" class="node"><title>n16</title>
<polygon style="fill:white;stroke:black;stroke-width:2;" points="418,-175 396,-175 396,-153 418,-153 418,-175"/>
<text text-anchor="middle" x="407" y="-159" style="font-family:Nimbus Sans L;font-weight:bold;font-size:9.72pt;fill:blue;">6</text>
</g>
<!-- n15&#45;&gt;n16 -->
<g id="edge32" class="edge"><title>n15&#45;&gt;n16</title>
<path style="fill:none;stroke:black;stroke-width:2;" d="M414,-204C412,-197 411,-188 410,-180"/>
<polygon style="fill:black;stroke:black;" points="411.697,-179.56 409,-175 408.265,-180.246 411.697,-179.56"/>
</g>
<!-- n18 -->
<g id="node19" class="node"><title>n18</title>
<polygon style="fill:white;stroke:black;stroke-width:2;" points="540,-226 492,-226 492,-204 540,-204 540,-226"/>
<text text-anchor="middle" x="516" y="-210" style="font-family:Nimbus Sans L;font-weight:bold;font-size:9.72pt;fill:blue;">chunk</text>
</g>
<!-- n17&#45;&gt;n18 -->
<g id="edge36" class="edge"><title>n17&#45;&gt;n18</title>
<path style="fill:none;stroke:black;stroke-width:2;" d="M702,-260C664,-250 587,-232 545,-222"/>
<polygon style="fill:black;stroke:black;" points="545.246,-220.265 540,-221 544.56,-223.697 545.246,-220.265"/>
</g>
<!-- n21 -->
<g id="node22" class="node"><title>n21</title>
<polygon style="fill:white;stroke:black;stroke-width:2;" points="663,-226 607,-226 607,-204 663,-204 663,-226"/>
<text text-anchor="middle" x="635" y="-210" style="font-family:Nimbus Sans L;font-weight:bold;font-size:9.72pt;fill:blue;">register</text>
</g>
<!-- n17&#45;&gt;n21 -->
<g id="edge42" class="edge"><title>n17&#45;&gt;n21</title>
<path style="fill:none;stroke:black;stroke-width:2;" d="M705,-255C691,-247 673,-237 658,-229"/>
<polygon style="fill:black;stroke:black;" points="659.05,-227.6 654,-226 656.95,-230.4 659.05,-227.6"/>
</g>
<!-- n24 -->
<g id="node25" class="node"><title>n24</title>
<polygon style="fill:white;stroke:black;stroke-width:2;" points="738,-226 712,-226 712,-204 738,-204 738,-226"/>
<text text-anchor="middle" x="725" y="-210" style="font-family:Nimbus Sans L;font-weight:bold;font-size:9.72pt;fill:blue;">io</text>
</g>
<!-- n17&#45;&gt;n24 -->
<g id="edge48" class="edge"><title>n17&#45;&gt;n24</title>
<path style="fill:none;stroke:black;stroke-width:2;" d="M725,-255C725,-248 725,-239 725,-231"/>
<polygon style="fill:black;stroke:black;" points="726.75,-231 725,-226 723.25,-231 726.75,-231"/>
</g>
<!-- n27 -->
<g id="node28" class="node"><title>n27</title>
<polygon style="fill:white;stroke:black;stroke-width:2;" points="824,-226 786,-226 786,-204 824,-204 824,-226"/>
<text text-anchor="middle" x="805" y="-210" style="font-family:Nimbus Sans L;font-weight:bold;font-size:9.72pt;fill:blue;">ram</text>
</g>
<!-- n17&#45;&gt;n27 -->
<g id="edge54" class="edge"><title>n17&#45;&gt;n27</title>
<path style="fill:none;stroke:black;stroke-width:2;" d="M742,-255C755,-247 770,-237 784,-229"/>
<polygon style="fill:black;stroke:black;" points="785.05,-230.4 788,-226 782.95,-227.6 785.05,-230.4"/>
</g>
<!-- n30 -->
<g id="node31" class="node"><title>n30</title>
<polygon style="fill:white;stroke:black;stroke-width:2;" points="944,-226 906,-226 906,-204 944,-204 944,-226"/>
<text text-anchor="middle" x="925" y="-210" style="font-family:Nimbus Sans L;font-weight:bold;font-size:9.72pt;fill:blue;">rom</text>
</g>
<!-- n17&#45;&gt;n30 -->
<g id="edge60" class="edge"><title>n17&#45;&gt;n30</title>
<path style="fill:none;stroke:black;stroke-width:2;" d="M748,-260C786,-250 862,-231 901,-221"/>
<polygon style="fill:black;stroke:black;" points="901.44,-222.697 906,-220 900.754,-219.265 901.44,-222.697"/>
</g>
<!-- n33 -->
<g id="node34" class="node"><title>n33</title>
<polygon style="fill:white;stroke:black;stroke-width:2;" points="1101,-226 1061,-226 1061,-204 1101,-204 1101,-226"/>
<text text-anchor="middle" x="1081" y="-210" style="font-family:Nimbus Sans L;font-weight:bold;font-size:9.72pt;fill:blue;">print</text>
</g>
<!-- n17&#45;&gt;n33 -->
<g id="edge66" class="edge"><title>n17&#45;&gt;n33</title>
<path style="fill:none;stroke:black;stroke-width:2;" d="M748,-263C811,-253 990,-228 1056,-219"/>
<polygon style="fill:black;stroke:black;" points="1056.44,-220.697 1061,-218 1055.75,-217.265 1056.44,-220.697"/>
</g>
<!-- n19 -->
<g id="node20" class="node"><title>n19</title>
<polygon style="fill:white;stroke:black;stroke-width:2;" points="458,-175 436,-175 436,-153 458,-153 458,-175"/>
<text text-anchor="middle" x="447" y="-159" style="font-family:Nimbus Sans L;font-weight:bold;font-size:9.72pt;fill:blue;">0</text>
</g>
<!-- n18&#45;&gt;n19 -->
<g id="edge38" class="edge"><title>n18&#45;&gt;n19</title>
<path style="fill:none;stroke:black;stroke-width:2;" d="M501,-204C489,-196 474,-184 462,-175"/>
<polygon style="fill:black;stroke:black;" points="463.05,-173.6 458,-172 460.95,-176.4 463.05,-173.6"/>
</g>
<!-- n20 -->
<g id="node21" class="node"><title>n20</title>
<polygon style="fill:white;stroke:black;stroke-width:2;" points="556,-175 476,-175 476,-153 556,-153 556,-175"/>
<text text-anchor="middle" x="516" y="-159" style="font-family:Nimbus Sans L;font-weight:bold;font-size:9.72pt;fill:blue;">0xFFFFFFF</text>
</g>
<!-- n18&#45;&gt;n20 -->
<g id="edge40" class="edge"><title>n18&#45;&gt;n20</title>
<path style="fill:none;stroke:black;stroke-width:2;" d="M516,-204C516,-197 516,-188 516,-180"/>
<polygon style="fill:black;stroke:black;" points="517.75,-180 516,-175 514.25,-180 517.75,-180"/>
</g>
<!-- n22 -->
<g id="node23" class="node"><title>n22</title>
<polygon style="fill:white;stroke:black;stroke-width:2;" points="596,-175 574,-175 574,-153 596,-153 596,-175"/>
<text text-anchor="middle" x="585" y="-159" style="font-family:Nimbus Sans L;font-weight:bold;font-size:9.72pt;fill:blue;">0</text>
</g>
<!-- n21&#45;&gt;n22 -->
<g id="edge44" class="edge"><title>n21&#45;&gt;n22</title>
<path style="fill:none;stroke:black;stroke-width:2;" d="M624,-204C616,-196 607,-187 600,-179"/>
<polygon style="fill:black;stroke:black;" points="600.773,-177.298 596,-175 598.298,-179.773 600.773,-177.298"/>
</g>
<!-- n23 -->
<g id="node24" class="node"><title>n23</title>
<polygon style="fill:white;stroke:black;stroke-width:2;" points="656,-175 614,-175 614,-153 656,-153 656,-175"/>
<text text-anchor="middle" x="635" y="-159" style="font-family:Nimbus Sans L;font-weight:bold;font-size:9.72pt;fill:blue;">0x20</text>
</g>
<!-- n21&#45;&gt;n23 -->
<g id="edge46" class="edge"><title>n21&#45;&gt;n23</title>
<path style="fill:none;stroke:black;stroke-width:2;" d="M635,-204C635,-197 635,-188 635,-180"/>
<polygon style="fill:black;stroke:black;" points="636.75,-180 635,-175 633.25,-180 636.75,-180"/>
</g>
<!-- n25 -->
<g id="node26" class="node"><title>n25</title>
<polygon style="fill:white;stroke:black;stroke-width:2;" points="716,-175 674,-175 674,-153 716,-153 716,-175"/>
<text text-anchor="middle" x="695" y="-159" style="font-family:Nimbus Sans L;font-weight:bold;font-size:9.72pt;fill:blue;">0x20</text>
</g>
<!-- n24&#45;&gt;n25 -->
<g id="edge50" class="edge"><title>n24&#45;&gt;n25</title>
<path style="fill:none;stroke:black;stroke-width:2;" d="M718,-204C714,-197 709,-188 705,-180"/>
<polygon style="fill:black;stroke:black;" points="706.073,-178.387 702,-175 703.072,-180.188 706.073,-178.387"/>
</g>
<!-- n26 -->
<g id="node27" class="node"><title>n26</title>
<polygon style="fill:white;stroke:black;stroke-width:2;" points="776,-175 734,-175 734,-153 776,-153 776,-175"/>
<text text-anchor="middle" x="755" y="-159" style="font-family:Nimbus Sans L;font-weight:bold;font-size:9.72pt;fill:blue;">0x60</text>
</g>
<!-- n24&#45;&gt;n26 -->
<g id="edge52" class="edge"><title>n24&#45;&gt;n26</title>
<path style="fill:none;stroke:black;stroke-width:2;" d="M732,-204C736,-197 741,-188 745,-180"/>
<polygon style="fill:black;stroke:black;" points="746.928,-180.188 748,-175 743.927,-178.387 746.928,-180.188"/>
</g>
<!-- n28 -->
<g id="node29" class="node"><title>n28</title>
<polygon style="fill:white;stroke:black;stroke-width:2;" points="816,-175 794,-175 794,-153 816,-153 816,-175"/>
<text text-anchor="middle" x="805" y="-159" style="font-family:Nimbus Sans L;font-weight:bold;font-size:9.72pt;fill:blue;">0</text>
</g>
<!-- n27&#45;&gt;n28 -->
<g id="edge56" class="edge"><title>n27&#45;&gt;n28</title>
<path style="fill:none;stroke:black;stroke-width:2;" d="M805,-204C805,-197 805,-188 805,-180"/>
<polygon style="fill:black;stroke:black;" points="806.75,-180 805,-175 803.25,-180 806.75,-180"/>
</g>
<!-- n29 -->
<g id="node30" class="node"><title>n29</title>
<polygon style="fill:white;stroke:black;stroke-width:2;" points="882,-175 834,-175 834,-153 882,-153 882,-175"/>
<text text-anchor="middle" x="858" y="-159" style="font-family:Nimbus Sans L;font-weight:bold;font-size:9.72pt;fill:blue;">0x461</text>
</g>
<!-- n27&#45;&gt;n29 -->
<g id="edge58" class="edge"><title>n27&#45;&gt;n29</title>
<path style="fill:none;stroke:black;stroke-width:2;" d="M817,-204C825,-196 835,-187 843,-179"/>
<polygon style="fill:black;stroke:black;" points="844.702,-179.773 847,-175 842.227,-177.298 844.702,-179.773"/>
</g>
<!-- n31 -->
<g id="node32" class="node"><title>n31</title>
<polygon style="fill:white;stroke:black;stroke-width:2;" points="950,-175 900,-175 900,-153 950,-153 950,-175"/>
<text text-anchor="middle" x="925" y="-159" style="font-family:Nimbus Sans L;font-weight:bold;font-size:9.72pt;fill:blue;">0x464</text>
</g>
<!-- n30&#45;&gt;n31 -->
<g id="edge62" class="edge"><title>n30&#45;&gt;n31</title>
<path style="fill:none;stroke:black;stroke-width:2;" d="M925,-204C925,-197 925,-188 925,-180"/>
<polygon style="fill:black;stroke:black;" points="926.75,-180 925,-175 923.25,-180 926.75,-180"/>
</g>
<!-- n32 -->
<g id="node33" class="node"><title>n32</title>
<polygon style="fill:white;stroke:black;stroke-width:2;" points="1042,-175 968,-175 968,-153 1042,-153 1042,-175"/>
<text text-anchor="middle" x="1005" y="-159" style="font-family:Nimbus Sans L;font-weight:bold;font-size:9.72pt;fill:blue;">0xFFFFFF</text>
</g>
<!-- n30&#45;&gt;n32 -->
<g id="edge64" class="edge"><title>n30&#45;&gt;n32</title>
<path style="fill:none;stroke:black;stroke-width:2;" d="M942,-204C955,-196 970,-186 984,-178"/>
<polygon style="fill:black;stroke:black;" points="985.05,-179.4 988,-175 982.95,-176.6 985.05,-179.4"/>
</g>
<!-- n34 -->
<g id="node35" class="node"><title>n34</title>
<polygon style="fill:white;stroke:black;stroke-width:2;" points="1102,-175 1060,-175 1060,-153 1102,-153 1102,-175"/>
<text text-anchor="middle" x="1081" y="-159" style="font-family:Nimbus Sans L;font-weight:bold;font-size:9.72pt;fill:blue;">0x3b</text>
</g>
<!-- n33&#45;&gt;n34 -->
<g id="edge68" class="edge"><title>n33&#45;&gt;n34</title>
<path style="fill:none;stroke:black;stroke-width:2;" d="M1081,-204C1081,-197 1081,-188 1081,-180"/>
<polygon style="fill:black;stroke:black;" points="1082.75,-180 1081,-175 1079.25,-180 1082.75,-180"/>
</g>
<!-- n35 -->
<g id="node36" class="node"><title>n35</title>
<polygon style="fill:white;stroke:black;stroke-width:2;" points="1162,-175 1120,-175 1120,-153 1162,-153 1162,-175"/>
<text text-anchor="middle" x="1141" y="-159" style="font-family:Nimbus Sans L;font-weight:bold;font-size:9.72pt;fill:blue;">0x3c</text>
</g>
<!-- n33&#45;&gt;n35 -->
<g id="edge70" class="edge"><title>n33&#45;&gt;n35</title>
<path style="fill:none;stroke:black;stroke-width:2;" d="M1094,-204C1103,-196 1115,-187 1124,-178"/>
<polygon style="fill:black;stroke:black;" points="1125.05,-179.4 1128,-175 1122.95,-176.6 1125.05,-179.4"/>
</g>
<!-- n37 -->
<g id="node38" class="node"><title>n37</title>
<polygon style="fill:white;stroke:black;stroke-width:2;" points="1377,-226 1333,-226 1333,-204 1377,-204 1377,-226"/>
<text text-anchor="middle" x="1355" y="-210" style="font-family:Nimbus Sans L;font-weight:bold;font-size:9.72pt;fill:blue;">noop</text>
</g>
<!-- n36&#45;&gt;n37 -->
<g id="edge74" class="edge"><title>n36&#45;&gt;n37</title>
<path style="fill:none;stroke:black;stroke-width:2;" d="M1421,-255C1408,-247 1391,-237 1377,-229"/>
<polygon style="fill:black;stroke:black;" points="1378.05,-227.6 1373,-226 1375.95,-230.4 1378.05,-227.6"/>
</g>
<!-- n47 -->
<g id="node48" class="node"><title>n47</title>
<polygon style="fill:white;stroke:black;stroke-width:2;" points="1537,-226 1511,-226 1511,-204 1537,-204 1537,-226"/>
<text text-anchor="middle" x="1524" y="-210" style="font-family:Nimbus Sans L;font-weight:bold;font-size:9.72pt;fill:blue;">in</text>
</g>
<!-- n36&#45;&gt;n47 -->
<g id="edge94" class="edge"><title>n36&#45;&gt;n47</title>
<path style="fill:none;stroke:black;stroke-width:2;" d="M1457,-255C1471,-246 1492,-234 1506,-226"/>
<polygon style="fill:black;stroke:black;" points="1507.61,-227.073 1511,-223 1505.81,-224.072 1507.61,-227.073"/>
</g>
<!-- n63 -->
<g id="node64" class="node"><title>n63</title>
<polygon style="fill:white;stroke:black;stroke-width:2;" points="1916,-226 1880,-226 1880,-204 1916,-204 1916,-226"/>
<text text-anchor="middle" x="1898" y="-210" style="font-family:Nimbus Sans L;font-weight:bold;font-size:9.72pt;fill:blue;">jmp</text>
</g>
<!-- n36&#45;&gt;n63 -->
<g id="edge126" class="edge"><title>n36&#45;&gt;n63</title>
<path style="fill:none;stroke:black;stroke-width:2;" d="M1478,-262C1571,-251 1801,-226 1875,-218"/>
<polygon style="fill:black;stroke:black;" points="1875.44,-219.697 1880,-217 1874.75,-216.265 1875.44,-219.697"/>
</g>
<!-- n38 -->
<g id="node39" class="node"><title>n38</title>
<polygon style="fill:white;stroke:black;stroke-width:2;" points="1246,-175 1180,-175 1180,-153 1246,-153 1246,-175"/>
<text text-anchor="middle" x="1213" y="-159" style="font-family:Nimbus Sans L;font-weight:bold;font-size:9.72pt;fill:blue;">PARAMS</text>
</g>
<!-- n37&#45;&gt;n38 -->
<g id="edge76" class="edge"><title>n37&#45;&gt;n38</title>
<path style="fill:none;stroke:black;stroke-width:2;" d="M1333,-207C1310,-199 1275,-187 1249,-177"/>
<polygon style="fill:black;stroke:black;" points="1249.29,-175.232 1244,-175 1247.99,-178.482 1249.29,-175.232"/>
</g>
<!-- n40 -->
<g id="node41" class="node"><title>n40</title>
<polygon style="fill:white;stroke:black;stroke-width:2;" points="1358,-175 1264,-175 1264,-153 1358,-153 1358,-175"/>
<text text-anchor="middle" x="1311" y="-159" style="font-family:Nimbus Sans L;font-weight:bold;font-size:9.72pt;fill:blue;">ARGUMENTS</text>
</g>
<!-- n37&#45;&gt;n40 -->
<g id="edge80" class="edge"><title>n37&#45;&gt;n40</title>
<path style="fill:none;stroke:black;stroke-width:2;" d="M1345,-204C1339,-196 1331,-187 1324,-179"/>
<polygon style="fill:black;stroke:black;" points="1325.4,-177.95 1321,-175 1322.6,-180.05 1325.4,-177.95"/>
</g>
<!-- n41 -->
<g id="node42" class="node"><title>n41</title>
<polygon style="fill:white;stroke:black;stroke-width:2;" points="1424,-175 1376,-175 1376,-153 1424,-153 1424,-175"/>
<text text-anchor="middle" x="1400" y="-159" style="font-family:Nimbus Sans L;font-weight:bold;font-size:9.72pt;fill:blue;">EXPR</text>
</g>
<!-- n37&#45;&gt;n41 -->
<g id="edge82" class="edge"><title>n37&#45;&gt;n41</title>
<path style="fill:none;stroke:black;stroke-width:2;" d="M1365,-204C1371,-196 1380,-187 1387,-179"/>
<polygon style="fill:black;stroke:black;" points="1388.4,-180.05 1390,-175 1385.6,-177.95 1388.4,-180.05"/>
</g>
<!-- n39 -->
<g id="node40" class="node"><title>n39</title>
<polygon style="fill:white;stroke:black;stroke-width:2;" points="1267,-124 1159,-124 1159,-102 1267,-102 1267,-124"/>
<text text-anchor="middle" x="1213" y="-108" style="font-family:Nimbus Sans L;font-weight:bold;font-size:9.72pt;fill:blue;">&quot;0000 0...0 0000&quot;</text>
</g>
<!-- n38&#45;&gt;n39 -->
<g id="edge78" class="edge"><title>n38&#45;&gt;n39</title>
<path style="fill:none;stroke:black;stroke-width:2;" d="M1213,-153C1213,-146 1213,-137 1213,-129"/>
<polygon style="fill:black;stroke:black;" points="1214.75,-129 1213,-124 1211.25,-129 1214.75,-129"/>
</g>
<!-- n42 -->
<g id="node43" class="node"><title>n42</title>
<polygon style="fill:white;stroke:black;stroke-width:2;" points="1402,-124 1378,-124 1378,-102 1402,-102 1402,-124"/>
<text text-anchor="middle" x="1390" y="-108" style="font-family:Nimbus Sans L;font-weight:bold;font-size:9.72pt;fill:blue;">=</text>
</g>
<!-- n41&#45;&gt;n42 -->
<g id="edge84" class="edge"><title>n41&#45;&gt;n42</title>
<path style="fill:none;stroke:black;stroke-width:2;" d="M1398,-153C1396,-146 1395,-137 1393,-129"/>
<polygon style="fill:black;stroke:black;" points="1394.7,-128.56 1392,-124 1391.26,-129.246 1394.7,-128.56"/>
</g>
<!-- n43 -->
<g id="node44" class="node"><title>n43</title>
<polygon style="fill:white;stroke:black;stroke-width:2;" points="1383,-73 1351,-73 1351,-51 1383,-51 1383,-73"/>
<text text-anchor="middle" x="1367" y="-57" style="font-family:Nimbus Sans L;font-weight:bold;font-size:9.72pt;fill:blue;">PC</text>
</g>
<!-- n42&#45;&gt;n43 -->
<g id="edge86" class="edge"><title>n42&#45;&gt;n43</title>
<path style="fill:none;stroke:black;stroke-width:2;" d="M1385,-102C1382,-95 1378,-86 1374,-78"/>
<polygon style="fill:black;stroke:black;" points="1375.48,-76.9924 1372,-73 1372.23,-78.2923 1375.48,-76.9924"/>
</g>
<!-- n44 -->
<g id="node45" class="node"><title>n44</title>
<polygon style="fill:white;stroke:black;stroke-width:2;" points="1425,-73 1401,-73 1401,-51 1425,-51 1425,-73"/>
<text text-anchor="middle" x="1413" y="-57" style="font-family:Nimbus Sans L;font-weight:bold;font-size:9.72pt;fill:blue;">+</text>
</g>
<!-- n42&#45;&gt;n44 -->
<g id="edge88" class="edge"><title>n42&#45;&gt;n44</title>
<path style="fill:none;stroke:black;stroke-width:2;" d="M1395,-102C1398,-95 1402,-86 1406,-78"/>
<polygon style="fill:black;stroke:black;" points="1407.77,-78.2923 1408,-73 1404.52,-76.9924 1407.77,-78.2923"/>
</g>
<!-- n45 -->
<g id="node46" class="node"><title>n45</title>
<polygon style="fill:white;stroke:black;stroke-width:2;" points="1407,-22 1375,-22 1375,-5.32907e-15 1407,-0 1407,-22"/>
<text text-anchor="middle" x="1391" y="-6" style="font-family:Nimbus Sans L;font-weight:bold;font-size:9.72pt;fill:blue;">PC</text>
</g>
<!-- n44&#45;&gt;n45 -->
<g id="edge90" class="edge"><title>n44&#45;&gt;n45</title>
<path style="fill:none;stroke:black;stroke-width:2;" d="M1408,-51C1406,-44 1402,-35 1398,-27"/>
<polygon style="fill:black;stroke:black;" points="1399.48,-25.9924 1396,-22 1396.23,-27.2923 1399.48,-25.9924"/>
</g>
<!-- n46 -->
<g id="node47" class="node"><title>n46</title>
<polygon style="fill:white;stroke:black;stroke-width:2;" points="1447,-22 1425,-22 1425,-5.32907e-15 1447,-0 1447,-22"/>
<text text-anchor="middle" x="1436" y="-6" style="font-family:Nimbus Sans L;font-weight:bold;font-size:9.72pt;fill:blue;">1</text>
</g>
<!-- n44&#45;&gt;n46 -->
<g id="edge92" class="edge"><title>n44&#45;&gt;n46</title>
<path style="fill:none;stroke:black;stroke-width:2;" d="M1418,-51C1421,-44 1425,-35 1429,-27"/>
<polygon style="fill:black;stroke:black;" points="1430.77,-27.2923 1431,-22 1427.52,-25.9924 1430.77,-27.2923"/>
</g>
<!-- n48 -->
<g id="node49" class="node"><title>n48</title>
<polygon style="fill:white;stroke:black;stroke-width:2;" points="1508,-175 1442,-175 1442,-153 1508,-153 1508,-175"/>
<text text-anchor="middle" x="1475" y="-159" style="font-family:Nimbus Sans L;font-weight:bold;font-size:9.72pt;fill:blue;">PARAMS</text>
</g>
<!-- n47&#45;&gt;n48 -->
<g id="edge96" class="edge"><title>n47&#45;&gt;n48</title>
<path style="fill:none;stroke:black;stroke-width:2;" d="M1513,-204C1506,-196 1497,-187 1490,-179"/>
<polygon style="fill:black;stroke:black;" points="1490.77,-177.298 1486,-175 1488.3,-179.773 1490.77,-177.298"/>
</g>
<!-- n50 -->
<g id="node51" class="node"><title>n50</title>
<polygon style="fill:white;stroke:black;stroke-width:2;" points="1620,-175 1526,-175 1526,-153 1620,-153 1620,-175"/>
<text text-anchor="middle" x="1573" y="-159" style="font-family:Nimbus Sans L;font-weight:bold;font-size:9.72pt;fill:blue;">ARGUMENTS</text>
</g>
<!-- n47&#45;&gt;n50 -->
<g id="edge100" class="edge"><title>n47&#45;&gt;n50</title>
<path style="fill:none;stroke:black;stroke-width:2;" d="M1535,-204C1542,-196 1551,-187 1558,-179"/>
<polygon style="fill:black;stroke:black;" points="1559.7,-179.773 1562,-175 1557.23,-177.298 1559.7,-179.773"/>
</g>
<!-- n53 -->
<g id="node54" class="node"><title>n53</title>
<polygon style="fill:white;stroke:black;stroke-width:2;" points="1686,-175 1638,-175 1638,-153 1686,-153 1686,-175"/>
<text text-anchor="middle" x="1662" y="-159" style="font-family:Nimbus Sans L;font-weight:bold;font-size:9.72pt;fill:blue;">EXPR</text>
</g>
<!-- n47&#45;&gt;n53 -->
<g id="edge106" class="edge"><title>n47&#45;&gt;n53</title>
<path style="fill:none;stroke:black;stroke-width:2;" d="M1537,-210C1559,-201 1604,-186 1633,-175"/>
<polygon style="fill:black;stroke:black;" points="1634.01,-176.482 1638,-173 1632.71,-173.232 1634.01,-176.482"/>
</g>
<!-- n49 -->
<g id="node50" class="node"><title>n49</title>
<polygon style="fill:white;stroke:black;stroke-width:2;" points="1530,-124 1420,-124 1420,-102 1530,-102 1530,-124"/>
<text text-anchor="middle" x="1475" y="-108" style="font-family:Nimbus Sans L;font-weight:bold;font-size:9.72pt;fill:blue;">&quot;1011 0...d AAAA&quot;</text>
</g>
<!-- n48&#45;&gt;n49 -->
<g id="edge98" class="edge"><title>n48&#45;&gt;n49</title>
<path style="fill:none;stroke:black;stroke-width:2;" d="M1475,-153C1475,-146 1475,-137 1475,-129"/>
<polygon style="fill:black;stroke:black;" points="1476.75,-129 1475,-124 1473.25,-129 1476.75,-129"/>
</g>
<!-- n51 -->
<g id="node52" class="node"><title>n51</title>
<polygon style="fill:white;stroke:black;stroke-width:2;" points="1570,-124 1548,-124 1548,-102 1570,-102 1570,-124"/>
<text text-anchor="middle" x="1559" y="-108" style="font-family:Nimbus Sans L;font-weight:bold;font-size:9.72pt;fill:blue;">d</text>
</g>
<!-- n50&#45;&gt;n51 -->
<g id="edge102" class="edge"><title>n50&#45;&gt;n51</title>
<path style="fill:none;stroke:black;stroke-width:2;" d="M1570,-153C1568,-146 1565,-137 1563,-129"/>
<polygon style="fill:black;stroke:black;" points="1564.7,-128.56 1562,-124 1561.26,-129.246 1564.7,-128.56"/>
</g>
<!-- n52 -->
<g id="node53" class="node"><title>n52</title>
<polygon style="fill:white;stroke:black;stroke-width:2;" points="1614,-124 1588,-124 1588,-102 1614,-102 1614,-124"/>
<text text-anchor="middle" x="1601" y="-108" style="font-family:Nimbus Sans L;font-weight:bold;font-size:9.72pt;fill:blue;">A</text>
</g>
<!-- n50&#45;&gt;n52 -->
<g id="edge104" class="edge"><title>n50&#45;&gt;n52</title>
<path style="fill:none;stroke:black;stroke-width:2;" d="M1579,-153C1583,-146 1588,-137 1592,-129"/>
<polygon style="fill:black;stroke:black;" points="1593.93,-129.188 1595,-124 1590.93,-127.387 1593.93,-129.188"/>
</g>
<!-- n54 -->
<g id="node55" class="node"><title>n54</title>
<polygon style="fill:white;stroke:black;stroke-width:2;" points="1656,-124 1632,-124 1632,-102 1656,-102 1656,-124"/>
<text text-anchor="middle" x="1644" y="-108" style="font-family:Nimbus Sans L;font-weight:bold;font-size:9.72pt;fill:blue;">=</text>
</g>
<!-- n53&#45;&gt;n54 -->
<g id="edge108" class="edge"><title>n53&#45;&gt;n54</title>
<path style="fill:none;stroke:black;stroke-width:2;" d="M1658,-153C1656,-146 1652,-137 1650,-129"/>
<polygon style="fill:black;stroke:black;" points="1651.48,-127.992 1648,-124 1648.23,-129.292 1651.48,-127.992"/>
</g>
<!-- n58 -->
<g id="node59" class="node"><title>n58</title>
<polygon style="fill:white;stroke:black;stroke-width:2;" points="1700,-124 1676,-124 1676,-102 1700,-102 1700,-124"/>
<text text-anchor="middle" x="1688" y="-108" style="font-family:Nimbus Sans L;font-weight:bold;font-size:9.72pt;fill:blue;">=</text>
</g>
<!-- n53&#45;&gt;n58 -->
<g id="edge116" class="edge"><title>n53&#45;&gt;n58</title>
<path style="fill:none;stroke:black;stroke-width:2;" d="M1668,-153C1671,-146 1676,-137 1680,-129"/>
<polygon style="fill:black;stroke:black;" points="1681.77,-129.292 1682,-124 1678.52,-127.992 1681.77,-129.292"/>
</g>
<!-- n55 -->
<g id="node56" class="node"><title>n55</title>
<polygon style="fill:white;stroke:black;stroke-width:2;" points="1611,-73 1589,-73 1589,-51 1611,-51 1611,-73"/>
<text text-anchor="middle" x="1600" y="-57" style="font-family:Nimbus Sans L;font-weight:bold;font-size:9.72pt;fill:blue;">d</text>
</g>
<!-- n54&#45;&gt;n55 -->
<g id="edge110" class="edge"><title>n54&#45;&gt;n55</title>
<path style="fill:none;stroke:black;stroke-width:2;" d="M1634,-102C1628,-94 1620,-85 1613,-77"/>
<polygon style="fill:black;stroke:black;" points="1614.4,-75.95 1610,-73 1611.6,-78.05 1614.4,-75.95"/>
</g>
<!-- n56 -->
<g id="node57" class="node"><title>n56</title>
<polygon style="fill:white;stroke:black;stroke-width:2;" points="1655,-73 1629,-73 1629,-51 1655,-51 1655,-73"/>
<text text-anchor="middle" x="1642" y="-57" style="font-family:Nimbus Sans L;font-weight:bold;font-size:9.72pt;fill:blue;">io</text>
</g>
<!-- n54&#45;&gt;n56 -->
<g id="edge112" class="edge"><title>n54&#45;&gt;n56</title>
<path style="fill:none;stroke:black;stroke-width:2;" d="M1644,-102C1643,-95 1643,-86 1642,-78"/>
<polygon style="fill:black;stroke:black;" points="1643.75,-78 1642,-73 1640.25,-78 1643.75,-78"/>
</g>
<!-- n57 -->
<g id="node58" class="node"><title>n57</title>
<polygon style="fill:white;stroke:black;stroke-width:2;" points="1655,-22 1629,-22 1629,-5.32907e-15 1655,-0 1655,-22"/>
<text text-anchor="middle" x="1642" y="-6" style="font-family:Nimbus Sans L;font-weight:bold;font-size:9.72pt;fill:blue;">A</text>
</g>
<!-- n56&#45;&gt;n57 -->
<g id="edge114" class="edge"><title>n56&#45;&gt;n57</title>
<path style="fill:none;stroke:black;stroke-width:2;" d="M1642,-51C1642,-44 1642,-35 1642,-27"/>
<polygon style="fill:black;stroke:black;" points="1643.75,-27 1642,-22 1640.25,-27 1643.75,-27"/>
</g>
<!-- n59 -->
<g id="node60" class="node"><title>n59</title>
<polygon style="fill:white;stroke:black;stroke-width:2;" points="1705,-73 1673,-73 1673,-51 1705,-51 1705,-73"/>
<text text-anchor="middle" x="1689" y="-57" style="font-family:Nimbus Sans L;font-weight:bold;font-size:9.72pt;fill:blue;">PC</text>
</g>
<!-- n58&#45;&gt;n59 -->
<g id="edge118" class="edge"><title>n58&#45;&gt;n59</title>
<path style="fill:none;stroke:black;stroke-width:2;" d="M1688,-102C1689,-95 1689,-86 1689,-78"/>
<polygon style="fill:black;stroke:black;" points="1690.75,-78 1689,-73 1687.25,-78 1690.75,-78"/>
</g>
<!-- n60 -->
<g id="node61" class="node"><title>n60</title>
<polygon style="fill:white;stroke:black;stroke-width:2;" points="1747,-73 1723,-73 1723,-51 1747,-51 1747,-73"/>
<text text-anchor="middle" x="1735" y="-57" style="font-family:Nimbus Sans L;font-weight:bold;font-size:9.72pt;fill:blue;">+</text>
</g>
<!-- n58&#45;&gt;n60 -->
<g id="edge120" class="edge"><title>n58&#45;&gt;n60</title>
<path style="fill:none;stroke:black;stroke-width:2;" d="M1698,-102C1705,-94 1714,-85 1721,-77"/>
<polygon style="fill:black;stroke:black;" points="1722.7,-77.773 1725,-73 1720.23,-75.2981 1722.7,-77.773"/>
</g>
<!-- n61 -->
<g id="node62" class="node"><title>n61</title>
<polygon style="fill:white;stroke:black;stroke-width:2;" points="1728,-22 1696,-22 1696,-5.32907e-15 1728,-0 1728,-22"/>
<text text-anchor="middle" x="1712" y="-6" style="font-family:Nimbus Sans L;font-weight:bold;font-size:9.72pt;fill:blue;">PC</text>
</g>
<!-- n60&#45;&gt;n61 -->
<g id="edge122" class="edge"><title>n60&#45;&gt;n61</title>
<path style="fill:none;stroke:black;stroke-width:2;" d="M1730,-51C1727,-44 1723,-35 1719,-27"/>
<polygon style="fill:black;stroke:black;" points="1720.48,-25.9924 1717,-22 1717.23,-27.2923 1720.48,-25.9924"/>
</g>
<!-- n62 -->
<g id="node63" class="node"><title>n62</title>
<polygon style="fill:white;stroke:black;stroke-width:2;" points="1768,-22 1746,-22 1746,-5.32907e-15 1768,-0 1768,-22"/>
<text text-anchor="middle" x="1757" y="-6" style="font-family:Nimbus Sans L;font-weight:bold;font-size:9.72pt;fill:blue;">1</text>
</g>
<!-- n60&#45;&gt;n62 -->
<g id="edge124" class="edge"><title>n60&#45;&gt;n62</title>
<path style="fill:none;stroke:black;stroke-width:2;" d="M1740,-51C1742,-44 1746,-35 1750,-27"/>
<polygon style="fill:black;stroke:black;" points="1751.77,-27.2923 1752,-22 1748.52,-25.9924 1751.77,-27.2923"/>
</g>
<!-- n64 -->
<g id="node65" class="node"><title>n64</title>
<polygon style="fill:white;stroke:black;stroke-width:2;" points="1882,-175 1816,-175 1816,-153 1882,-153 1882,-175"/>
<text text-anchor="middle" x="1849" y="-159" style="font-family:Nimbus Sans L;font-weight:bold;font-size:9.72pt;fill:blue;">PARAMS</text>
</g>
<!-- n63&#45;&gt;n64 -->
<g id="edge128" class="edge"><title>n63&#45;&gt;n64</title>
<path style="fill:none;stroke:black;stroke-width:2;" d="M1887,-204C1880,-196 1871,-187 1864,-179"/>
<polygon style="fill:black;stroke:black;" points="1864.77,-177.298 1860,-175 1862.3,-179.773 1864.77,-177.298"/>
</g>
<!-- n67 -->
<g id="node68" class="node"><title>n67</title>
<polygon style="fill:white;stroke:black;stroke-width:2;" points="1994,-175 1900,-175 1900,-153 1994,-153 1994,-175"/>
<text text-anchor="middle" x="1947" y="-159" style="font-family:Nimbus Sans L;font-weight:bold;font-size:9.72pt;fill:blue;">ARGUMENTS</text>
</g>
<!-- n63&#45;&gt;n67 -->
<g id="edge134" class="edge"><title>n63&#45;&gt;n67</title>
<path style="fill:none;stroke:black;stroke-width:2;" d="M1909,-204C1916,-196 1925,-187 1932,-179"/>
<polygon style="fill:black;stroke:black;" points="1933.7,-179.773 1936,-175 1931.23,-177.298 1933.7,-179.773"/>
</g>
<!-- n69 -->
<g id="node70" class="node"><title>n69</title>
<polygon style="fill:white;stroke:black;stroke-width:2;" points="2060,-175 2012,-175 2012,-153 2060,-153 2060,-175"/>
<text text-anchor="middle" x="2036" y="-159" style="font-family:Nimbus Sans L;font-weight:bold;font-size:9.72pt;fill:blue;">EXPR</text>
</g>
<!-- n63&#45;&gt;n69 -->
<g id="edge138" class="edge"><title>n63&#45;&gt;n69</title>
<path style="fill:none;stroke:black;stroke-width:2;" d="M1916,-208C1939,-199 1979,-185 2007,-175"/>
<polygon style="fill:black;stroke:black;" points="2008.01,-176.482 2012,-173 2006.71,-173.232 2008.01,-176.482"/>
</g>
<!-- n65 -->
<g id="node66" class="node"><title>n65</title>
<polygon style="fill:white;stroke:black;stroke-width:2;" points="1822,-124 1718,-124 1718,-102 1822,-102 1822,-124"/>
<text text-anchor="middle" x="1770" y="-108" style="font-family:Nimbus Sans L;font-weight:bold;font-size:9.72pt;fill:blue;">&quot;1001 0...k 110k&quot;</text>
</g>
<!-- n64&#45;&gt;n65 -->
<g id="edge130" class="edge"><title>n64&#45;&gt;n65</title>
<path style="fill:none;stroke:black;stroke-width:2;" d="M1832,-153C1820,-145 1805,-135 1791,-127"/>
<polygon style="fill:black;stroke:black;" points="1792.05,-125.6 1787,-124 1789.95,-128.4 1792.05,-125.6"/>
</g>
<!-- n66 -->
<g id="node67" class="node"><title>n66</title>
<polygon style="fill:white;stroke:black;stroke-width:2;" points="1942,-124 1840,-124 1840,-102 1942,-102 1942,-124"/>
<text text-anchor="middle" x="1891" y="-108" style="font-family:Nimbus Sans L;font-weight:bold;font-size:9.72pt;fill:blue;">&quot;kkkk k...k kkkk&quot;</text>
</g>
<!-- n64&#45;&gt;n66 -->
<g id="edge132" class="edge"><title>n64&#45;&gt;n66</title>
<path style="fill:none;stroke:black;stroke-width:2;" d="M1858,-153C1864,-145 1872,-136 1879,-128"/>
<polygon style="fill:black;stroke:black;" points="1880.4,-129.05 1882,-124 1877.6,-126.95 1880.4,-129.05"/>
</g>
<!-- n68 -->
<g id="node69" class="node"><title>n68</title>
<polygon style="fill:white;stroke:black;stroke-width:2;" points="1982,-124 1960,-124 1960,-102 1982,-102 1982,-124"/>
<text text-anchor="middle" x="1971" y="-108" style="font-family:Nimbus Sans L;font-weight:bold;font-size:9.72pt;fill:blue;">k</text>
</g>
<!-- n67&#45;&gt;n68 -->
<g id="edge136" class="edge"><title>n67&#45;&gt;n68</title>
<path style="fill:none;stroke:black;stroke-width:2;" d="M1952,-153C1955,-146 1960,-137 1964,-129"/>
<polygon style="fill:black;stroke:black;" points="1965.77,-129.292 1966,-124 1962.52,-127.992 1965.77,-129.292"/>
</g>
<!-- n70 -->
<g id="node71" class="node"><title>n70</title>
<polygon style="fill:white;stroke:black;stroke-width:2;" points="2048,-124 2024,-124 2024,-102 2048,-102 2048,-124"/>
<text text-anchor="middle" x="2036" y="-108" style="font-family:Nimbus Sans L;font-weight:bold;font-size:9.72pt;fill:blue;">=</text>
</g>
<!-- n69&#45;&gt;n70 -->
<g id="edge140" class="edge"><title>n69&#45;&gt;n70</title>
<path style="fill:none;stroke:black;stroke-width:2;" d="M2036,-153C2036,-146 2036,-137 2036,-129"/>
<polygon style="fill:black;stroke:black;" points="2037.75,-129 2036,-124 2034.25,-129 2037.75,-129"/>
</g>
<!-- n71 -->
<g id="node72" class="node"><title>n71</title>
<polygon style="fill:white;stroke:black;stroke-width:2;" points="2029,-73 1997,-73 1997,-51 2029,-51 2029,-73"/>
<text text-anchor="middle" x="2013" y="-57" style="font-family:Nimbus Sans L;font-weight:bold;font-size:9.72pt;fill:blue;">PC</text>
</g>
<!-- n70&#45;&gt;n71 -->
<g id="edge142" class="edge"><title>n70&#45;&gt;n71</title>
<path style="fill:none;stroke:black;stroke-width:2;" d="M2031,-102C2028,-95 2024,-86 2020,-78"/>
<polygon style="fill:black;stroke:black;" points="2021.48,-76.9924 2018,-73 2018.23,-78.2923 2021.48,-76.9924"/>
</g>
<!-- n72 -->
<g id="node73" class="node"><title>n72</title>
<polygon style="fill:white;stroke:black;stroke-width:2;" points="2069,-73 2047,-73 2047,-51 2069,-51 2069,-73"/>
<text text-anchor="middle" x="2058" y="-57" style="font-family:Nimbus Sans L;font-weight:bold;font-size:9.72pt;fill:blue;">k</text>
</g>
<!-- n70&#45;&gt;n72 -->
<g id="edge144" class="edge"><title>n70&#45;&gt;n72</title>
<path style="fill:none;stroke:black;stroke-width:2;" d="M2041,-102C2043,-95 2047,-86 2051,-78"/>
<polygon style="fill:black;stroke:black;" points="2052.77,-78.2923 2053,-73 2049.52,-76.9924 2052.77,-78.2923"/>
</g>
</g>
</svg>
